# xmcd
#
# Track frame offsets:
#	150
#	7708
#	18611
#	27817
#	39683
#	52472
#	62695
#	74862
#
# Disc length: 1148 seconds
#
# Revision: 3
# Processed by: cddbd v1.5.2PL0 Copyright (c) Steve Scherf et al.
# Submitted via: audiograbber 1.83.01
#
DISCID=6f047a08
DTITLE=Dolly Parton - Puppy Love
DYEAR=2006
DGENRE=Country
TTITLE0=Puppy love
TTITLE1=It wasn´t god who made Honky Tonk Angels
TTITLE2=Girl left alone
TTITLE3=Letter to heaven
TTITLE4=Little blossom
TTITLE5=Release me
TTITLE6=Two little orphans
TTITLE7=Making believe
EXTD=
EXTT0=
EXTT1=
EXTT2=
EXTT3=
EXTT4=
EXTT5=
EXTT6=
EXTT7=
PLAYORDER=
